<?xml version="1.0" standalone="no"?>
<!DOCTYPE svg PUBLIC "-//W3C//DTD SVG 20010904//EN"
 "http://www.w3.org/TR/2001/REC-SVG-20010904/DTD/svg10.dtd">
<svg version="1.0" xmlns="http://www.w3.org/2000/svg"
 width="220.000000pt" height="220.000000pt" viewBox="0 0 220.000000 220.000000"
 preserveAspectRatio="xMidYMid meet">
<metadata>
Created by potrace 1.11, written by Peter Selinger 2001-2013
</metadata>
<g transform="translate(0.000000,220.000000) scale(0.100000,-0.100000)"
fill="#000000" stroke="none">
<path d="M1072 2084 c-84 -17 -166 -51 -217 -90 -38 -29 -80 -82 -72 -90 3 -3
54 20 113 51 142 73 222 90 347 75 50 -6 94 -13 99 -16 4 -3 8 2 8 10 0 21
-95 64 -155 70 -27 2 -83 -2 -123 -10z"/>
<path d="M1155 1983 c-164 -25 -375 -94 -375 -122 0 -12 68 -4 160 19 104 26
230 48 328 55 45 4 82 10 82 14 0 23 -127 45 -195 34z"/>
<path d="M1440 1944 c0 -3 18 -61 41 -127 66 -197 108 -405 129 -643 12 -132
21 -176 37 -181 31 -11 23 200 -18 442 -41 247 -84 388 -146 478 -23 33 -43
48 -43 31z"/>
<path d="M1046 1849 c-137 -15 -254 -33 -259 -38 -8 -8 40 -11 159 -11 184 0
280 11 333 39 36 18 53 42 29 40 -7 -1 -125 -14 -262 -30z"/>
<path d="M1377 1844 c-7 -7 -1 -52 23 -174 29 -143 48 -296 60 -485 20 -308
28 -382 41 -406 26 -47 33 57 21 286 -20 363 -59 627 -107 733 -24 53 -27 56
-38 46z"/>
<path d="M646 1633 c-13 -43 -29 -112 -35 -153 -16 -111 -34 -414 -29 -502 1
-42 -1 -74 -5 -71 -5 3 -21 7 -36 9 -24 4 -36 -3 -76 -48 -70 -77 -113 -148
-168 -278 -39 -91 -54 -143 -72 -250 -38 -224 -38 -225 -18 -246 17 -17 18
-17 21 4 5 33 37 45 101 37 75 -9 91 -19 91 -56 0 -29 2 -30 29 -24 25 5 31 2
43 -22 l13 -28 580 -3 c319 -1 590 0 602 3 13 3 25 16 29 30 6 26 12 26 62 8
8 -4 12 5 12 25 0 38 15 50 83 63 63 13 107 6 107 -16 0 -18 20 -20 21 -2 3
37 -4 73 -17 83 -8 6 -21 51 -29 100 -22 126 -28 140 -104 251 -98 143 -118
181 -130 252 -6 36 -9 66 -8 68 9 8 106 -141 153 -235 29 -59 53 -104 54 -100
0 4 -17 47 -38 95 -44 104 -92 177 -162 253 l-51 55 -25 -28 c-13 -15 -24 -40
-24 -55 l1 -27 15 28 c8 15 19 25 23 22 14 -8 41 -71 41 -94 0 -28 -33 -28
-58 -1 -19 21 -19 21 -25 -17 -6 -37 26 -232 88 -528 29 -145 29 -135 7 -135
-15 0 -26 43 -76 303 -33 166 -61 307 -63 314 -3 8 -20 10 -53 6 -27 -3 -60
-3 -74 1 -25 6 -25 6 -28 134 l-3 127 -192 3 -193 2 0 25 c0 14 6 25 13 25 7
0 12 14 12 37 0 37 -1 38 -45 45 -25 3 -81 7 -126 7 l-81 1 -7 -202 c-3 -111
-10 -206 -15 -211 -5 -5 -47 -10 -94 -12 -96 -4 -106 3 -92 67 l7 32 12 -29
c7 -16 15 -25 18 -19 12 19 37 238 43 382 4 79 8 151 10 161 19 99 15 411 -5
411 -5 0 -20 -35 -34 -77z m-157 -834 c-10 -67 -20 -87 -95 -205 -100 -157
-107 -172 -129 -297 -11 -63 -23 -101 -32 -104 -8 -3 -16 -4 -18 -1 -2 2 9 67
24 143 25 121 37 159 94 278 57 119 153 274 164 263 2 -2 -2 -37 -8 -77z m101
39 c0 -50 -22 -78 -62 -78 -31 0 -33 6 -18 45 9 25 57 74 73 75 4 0 7 -19 7
-42z m-215 -500 c2 -13 -1 -52 -8 -88 -11 -61 -14 -65 -41 -68 -44 -5 -49 7
-37 88 7 40 14 77 17 81 3 5 18 9 34 9 23 0 31 -5 35 -22z m1512 -8 c6 -14 14
-51 18 -82 l7 -58 -45 0 c-52 0 -55 4 -64 93 -5 45 -3 61 8 68 25 16 63 5 76
-21z"/>
<path d="M795 1698 c-15 -43 -25 -125 -35 -283 -12 -180 -9 -252 12 -303 l11
-27 9 30 c21 73 37 595 18 595 -6 0 -13 -6 -15 -12z"/>
<path d="M949 1601 c-28 -23 -20 -38 11 -21 22 12 58 10 93 -5 12 -5 17 -3 17
9 0 35 -84 47 -121 17z"/>
<path d="M1163 1610 c-13 -5 -23 -17 -23 -26 0 -12 5 -14 18 -9 34 15 70 17
92 5 31 -17 39 -2 11 21 -25 20 -62 24 -98 9z"/>
<path d="M955 1527 c-12 -10 -14 -16 -7 -21 7 -4 12 -16 12 -27 0 -11 11 -24
25 -31 21 -9 28 -8 45 7 24 22 27 70 4 79 -26 10 -59 7 -79 -7z m65 -17 c0 -5
-4 -10 -9 -10 -6 0 -13 5 -16 10 -3 6 1 10 9 10 9 0 16 -4 16 -10z"/>
<path d="M1167 1533 c-14 -14 -6 -61 13 -78 17 -15 24 -16 45 -7 14 7 25 20
25 31 0 11 5 23 12 27 18 11 -21 34 -57 34 -18 0 -35 -3 -38 -7z m43 -23 c0
-5 -4 -10 -10 -10 -5 0 -10 5 -10 10 0 6 5 10 10 10 6 0 10 -4 10 -10z"/>
<path d="M1215 1351 c-5 -9 -40 -12 -129 -10 -111 3 -121 2 -124 -15 -2 -10 0
-16 5 -13 6 4 25 -9 43 -28 39 -40 81 -59 112 -52 13 4 47 26 75 50 46 39 50
47 39 62 -10 14 -15 15 -21 6z m-51 -60 c-17 -16 -39 -25 -59 -25 -20 0 -42 9
-59 25 l-26 25 85 0 85 0 -26 -25z"/>
<path d="M1200 1123 c-23 -4 -25 -8 -22 -43 4 -37 6 -39 46 -45 22 -3 75 -6
116 -8 l75 -2 3 53 3 52 -98 -1 c-54 -1 -109 -4 -123 -6z"/>
</g>
</svg>
